<svg width="32" height="32" viewBox="0 0 32 32" fill="none" xmlns="http://www.w3.org/2000/svg">
<path d="M22 12H24C24.2652 12 24.5196 12.1054 24.7071 12.2929C24.8946 12.4804 25 12.7348 25 13V25C25 25.2652 24.8946 25.5196 24.7071 25.7071C24.5196 25.8946 24.2652 26 24 26H8C7.73478 26 7.48043 25.8946 7.29289 25.7071C7.10536 25.5196 7 25.2652 7 25V13C7 12.7348 7.10536 12.4804 7.29289 12.2929C7.48043 12.1054 7.73478 12 8 12H10V11C10 9.4087 10.6321 7.88258 11.7574 6.75736C12.8826 5.63214 14.4087 5 16 5C17.5913 5 19.1174 5.63214 20.2426 6.75736C21.3679 7.88258 22 9.4087 22 11V12ZM20 12V11C20 9.93913 19.5786 8.92172 18.8284 8.17157C18.0783 7.42143 17.0609 7 16 7C14.9391 7 13.9217 7.42143 13.1716 8.17157C12.4214 8.92172 12 9.93913 12 11V12H20ZM15 18V20H17V18H15ZM11 18V20H13V18H11ZM19 18V20H21V18H19Z" fill="black"/>
</svg>
