<svg width="372" height="48" viewBox="0 0 372 48" fill="none" xmlns="http://www.w3.org/2000/svg">
<g clip-path="url(#clip0_341_3625)">
<rect x="-4.84744" y="2.91588" width="146" height="144" rx="72" transform="matrix(-0.970415 -0.241445 -0.241445 0.970415 347.153 -54.7534)" fill="#FBEE9D"/>
<rect x="-4.84744" y="2.91588" width="146" height="144" rx="72" transform="matrix(-0.970415 -0.241445 -0.241445 0.970415 347.153 -54.7534)" stroke="#151515" stroke-width="8"/>
<rect x="-4.84744" y="2.91588" width="144" height="144" rx="72" transform="matrix(-0.970415 -0.241445 -0.241445 0.970415 269.52 -74.069)" fill="#F6CAE4"/>
<rect x="-4.84744" y="2.91588" width="144" height="144" rx="72" transform="matrix(-0.970415 -0.241445 -0.241445 0.970415 269.52 -74.069)" stroke="#151515" stroke-width="8"/>
<rect x="-4.84744" y="2.91588" width="146" height="144" rx="72" transform="matrix(-0.970415 -0.241445 -0.241445 0.970415 193.827 -92.9017)" fill="#DACDF4"/>
<rect x="-4.84744" y="2.91588" width="146" height="144" rx="72" transform="matrix(-0.970415 -0.241445 -0.241445 0.970415 193.827 -92.9017)" stroke="#151515" stroke-width="8"/>
</g>
<defs>
<clipPath id="clip0_341_3625">
<rect width="372" height="48" fill="white" transform="matrix(-1 0 0 1 372 0)"/>
</clipPath>
</defs>
</svg>
