<svg width="32" height="32" viewBox="0 0 32 32" fill="none" xmlns="http://www.w3.org/2000/svg">
<path d="M25.9556 28H9.15556C8.00039 28 6.89254 27.5428 6.07572 26.7289C5.25889 25.9149 4.8 24.8111 4.8 23.66V6.92001C4.8 5.93341 5.19334 4.98721 5.89347 4.28958C6.59361 3.59194 7.5432 3.20001 8.53334 3.20001H25.9556C26.2856 3.20001 26.6021 3.33065 26.8355 3.5632C27.0689 3.79574 27.2 4.11114 27.2 4.44001V26.76C27.2 27.0889 27.0689 27.4043 26.8355 27.6368C26.6021 27.8694 26.2856 28 25.9556 28ZM24.7111 25.52V21.8H9.15556C8.66049 21.8 8.18569 21.996 7.83563 22.3448C7.48556 22.6936 7.28889 23.1667 7.28889 23.66C7.28889 24.1533 7.48556 24.6264 7.83563 24.9752C8.18569 25.324 8.66049 25.52 9.15556 25.52H24.7111ZM13.5111 5.68001V15.6L17.8667 13.12L22.2222 15.6V5.68001H13.5111Z" fill="#050505"/>
</svg>
