<svg width="40" height="40" viewBox="0 0 40 40" fill="none" xmlns="http://www.w3.org/2000/svg">
<path d="M27.955 26.705L20 34.66L12.045 26.705C10.4717 25.1317 9.40023 23.1271 8.96616 20.9448C8.53209 18.7626 8.75488 16.5006 9.60637 14.4449C10.4579 12.3892 11.8998 10.6322 13.7499 9.39608C15.5999 8.15992 17.775 7.50012 20 7.50012C22.225 7.50012 24.4001 8.15992 26.2502 9.39608C28.1002 10.6322 29.5421 12.3892 30.3936 14.4449C31.2451 16.5006 31.4679 18.7626 31.0338 20.9448C30.5998 23.1271 29.5283 25.1317 27.955 26.705ZM20 23.75C21.3261 23.75 22.5979 23.2232 23.5355 22.2856C24.4732 21.3479 25 20.0761 25 18.75C25 17.4239 24.4732 16.1522 23.5355 15.2145C22.5979 14.2768 21.3261 13.75 20 13.75C18.6739 13.75 17.4022 14.2768 16.4645 15.2145C15.5268 16.1522 15 17.4239 15 18.75C15 20.0761 15.5268 21.3479 16.4645 22.2856C17.4022 23.2232 18.6739 23.75 20 23.75ZM20 21.25C19.337 21.25 18.7011 20.9866 18.2322 20.5178C17.7634 20.049 17.5 19.4131 17.5 18.75C17.5 18.087 17.7634 17.4511 18.2322 16.9823C18.7011 16.5134 19.337 16.25 20 16.25C20.663 16.25 21.2989 16.5134 21.7678 16.9823C22.2366 17.4511 22.5 18.087 22.5 18.75C22.5 19.4131 22.2366 20.049 21.7678 20.5178C21.2989 20.9866 20.663 21.25 20 21.25Z" fill="#050505"/>
</svg>
