<svg width="20" height="20" viewBox="0 0 20 20" fill="none" xmlns="http://www.w3.org/2000/svg">
<path d="M6.48875 6.23C7.48484 5.43192 8.72363 4.99797 10 5C11.3281 5 12.5488 5.46 13.5113 6.23L14.4194 5.32188L15.3031 6.20563L14.395 7.11375C15.0561 7.94134 15.47 8.93877 15.5893 9.99124C15.7085 11.0437 15.5281 12.1085 15.0689 13.063C14.6097 14.0175 13.8904 14.8229 12.9936 15.3866C12.0969 15.9503 11.0592 16.2494 10 16.2494C8.9408 16.2494 7.90311 15.9503 7.00637 15.3866C6.10963 14.8229 5.39027 14.0175 4.93108 13.063C4.47189 12.1085 4.29153 11.0437 4.41075 9.99124C4.52997 8.93877 4.94394 7.94134 5.605 7.11375L4.69688 6.20625L5.58063 5.3225L6.48875 6.23063V6.23ZM10.625 10V7.18438L7.5 11.25H9.375V14.0625L12.5 10H10.625ZM7.5 3.125H12.5V4.375H7.5V3.125Z" fill="#050505"/>
</svg>
