<svg width="20" height="20" viewBox="0 0 20 20" fill="none" xmlns="http://www.w3.org/2000/svg">
<path d="M10 16.25C6.54813 16.25 3.75 13.4519 3.75 10C3.75 6.54813 6.54813 3.75 10 3.75C13.4519 3.75 16.25 6.54813 16.25 10C16.25 13.4519 13.4519 16.25 10 16.25ZM9.13875 7.75938C9.10113 7.73428 9.05742 7.71985 9.01225 7.71764C8.96709 7.71542 8.92217 7.7255 8.88228 7.74679C8.84239 7.76808 8.80902 7.79979 8.78572 7.83855C8.76243 7.87731 8.75008 7.92166 8.75 7.96688V12.0331C8.75008 12.0783 8.76243 12.1227 8.78572 12.1614C8.80902 12.2002 8.84239 12.2319 8.88228 12.2532C8.92217 12.2745 8.96709 12.2846 9.01225 12.2824C9.05742 12.2801 9.10113 12.2657 9.13875 12.2406L12.1881 10.2081C12.2224 10.1853 12.2505 10.1544 12.27 10.1181C12.2894 10.0817 12.2996 10.0412 12.2996 10C12.2996 9.95881 12.2894 9.91826 12.27 9.88195C12.2505 9.84564 12.2224 9.8147 12.1881 9.79187L9.13813 7.75938H9.13875Z" fill="#050505"/>
</svg>
