<svg width="20" height="20" viewBox="0 0 20 20" fill="none" xmlns="http://www.w3.org/2000/svg">
<path d="M9.31241 3.8125L15.4993 4.69688L16.383 10.8844L10.638 16.6294C10.5208 16.7465 10.3619 16.8124 10.1962 16.8124C10.0304 16.8124 9.87149 16.7465 9.75428 16.6294L3.56678 10.4419C3.44961 10.3247 3.38379 10.1657 3.38379 10C3.38379 9.83427 3.44961 9.67533 3.56678 9.55813L9.31241 3.8125ZM11.0799 9.11625C11.196 9.23231 11.3338 9.32436 11.4855 9.38715C11.6372 9.44994 11.7997 9.48225 11.9639 9.48222C12.128 9.48219 12.2906 9.44983 12.4422 9.38698C12.5939 9.32414 12.7317 9.23203 12.8477 9.11594C12.9638 8.99984 13.0558 8.86202 13.1186 8.71035C13.1814 8.55868 13.2137 8.39612 13.2137 8.23197C13.2137 8.06781 13.1813 7.90527 13.1185 7.75362C13.0556 7.60197 12.9635 7.46418 12.8474 7.34812C12.7313 7.23207 12.5935 7.14002 12.4418 7.07722C12.2901 7.01443 12.1276 6.98213 11.9634 6.98216C11.6319 6.98221 11.314 7.11397 11.0796 7.34844C10.8452 7.58291 10.7136 7.90088 10.7136 8.23241C10.7137 8.56394 10.8454 8.88187 11.0799 9.11625Z" fill="#050505"/>
</svg>
