<svg width="24" height="24" viewBox="0 0 24 24" fill="none" xmlns="http://www.w3.org/2000/svg">
<path d="M12.0002 3.375L15.1697 8.01225L20.5599 9.594L17.1287 14.0415L17.2899 19.656L12.0002 17.7675L6.71043 19.656L6.87168 14.0415L3.44043 9.594L8.83068 8.01225L12.0002 3.375ZM10.5002 12H9.00018C9.00017 12.7827 9.30602 13.5343 9.85248 14.0947C10.3989 14.655 11.1427 14.9795 11.9252 14.9991C12.7076 15.0187 13.4667 14.7317 14.0405 14.1994C14.6143 13.6671 14.9573 12.9317 14.9964 12.15L15.0002 12H13.5002C13.5019 12.3892 13.3523 12.7639 13.0829 13.0449C12.8135 13.3258 12.4454 13.4911 12.0565 13.5057C11.6675 13.5203 11.2881 13.3831 10.9984 13.1231C10.7087 12.8632 10.5314 12.5008 10.5039 12.1125L10.5002 12Z" fill="#050505"/>
</svg>
