<svg width="24" height="24" viewBox="0 0 24 24" fill="none" xmlns="http://www.w3.org/2000/svg">
<path d="M5.25 5.99475C5.25 5.58375 5.58375 5.25 5.99475 5.25H18.0052C18.4163 5.25 18.75 5.58375 18.75 5.99475V18.0052C18.7498 18.2027 18.6713 18.392 18.5316 18.5316C18.392 18.6713 18.2027 18.7498 18.0052 18.75H5.99475C5.79729 18.7498 5.60798 18.6713 5.46835 18.5316C5.32873 18.392 5.2502 18.2027 5.25 18.0052V5.99475ZM10.9665 9.31125C10.9214 9.28113 10.8689 9.26383 10.8147 9.26117C10.7605 9.25851 10.7066 9.2706 10.6587 9.29615C10.6109 9.3217 10.5708 9.35975 10.5429 9.40626C10.5149 9.45277 10.5001 9.50599 10.5 9.56025V14.4398C10.5001 14.494 10.5149 14.5472 10.5429 14.5937C10.5708 14.6402 10.6109 14.6783 10.6587 14.7039C10.7066 14.7294 10.7605 14.7415 10.8147 14.7388C10.8689 14.7362 10.9214 14.7189 10.9665 14.6888L14.6258 12.2498C14.6669 12.2224 14.7006 12.1852 14.724 12.1417C14.7473 12.0981 14.7595 12.0494 14.7595 12C14.7595 11.9506 14.7473 11.9019 14.724 11.8583C14.7006 11.8148 14.6669 11.7776 14.6258 11.7502L10.9658 9.31125H10.9665Z" fill="#050505"/>
</svg>
