<svg width="24" height="24" viewBox="0 0 24 24" fill="none" xmlns="http://www.w3.org/2000/svg">
<path d="M12 8.25002C13.5913 8.25002 15.1174 8.88216 16.2426 10.0074C17.3679 11.1326 18 12.6587 18 14.25C18 15.8413 17.3679 17.3674 16.2426 18.4927C15.1174 19.6179 13.5913 20.25 12 20.25C10.4087 20.25 8.88258 19.6179 7.75736 18.4927C6.63214 17.3674 6 15.8413 6 14.25C6 12.6587 6.63214 11.1326 7.75736 10.0074C8.88258 8.88216 10.4087 8.25002 12 8.25002ZM12 10.875L11.0078 12.885L8.79 13.2075L10.395 14.7713L10.0162 16.9808L12 15.9375L13.9838 16.98L13.605 14.7713L15.21 13.2068L12.9922 12.8843L12 10.875ZM12.75 4.49927L16.5 4.50002V6.75002L15.4777 7.60352C14.6295 7.15845 13.7033 6.88114 12.75 6.78677V4.50002V4.49927ZM11.25 4.49927V6.78677C10.297 6.881 9.37112 7.15806 8.523 7.60277L7.5 6.75002V4.50002L11.25 4.49927Z" fill="#050505"/>
</svg>
