<svg width="24" height="24" viewBox="0 0 24 24" fill="none" xmlns="http://www.w3.org/2000/svg">
<path d="M8.10088 24C10.2532 24 12.0001 22.208 12.0001 20V16H8.10088C5.94851 16 4.20166 17.792 4.20166 20C4.20166 22.208 5.94851 24 8.10088 24Z" fill="#0ACF83"/>
<path d="M4.20166 12C4.20166 9.792 5.94851 8 8.10088 8H12.0001V16H8.10088C5.94851 16 4.20166 14.208 4.20166 12Z" fill="#A259FF"/>
<path d="M4.20166 4C4.20166 1.792 5.94851 0 8.10088 0H12.0001V8H8.10088C5.94851 8 4.20166 6.208 4.20166 4Z" fill="#F24E1E"/>
<path d="M12 0H15.8992C18.0516 0 19.7984 1.792 19.7984 4C19.7984 6.208 18.0516 8 15.8992 8H12V0Z" fill="#FF7262"/>
<path d="M19.7984 12C19.7984 14.208 18.0516 16 15.8992 16C13.7469 16 12 14.208 12 12C12 9.792 13.7469 8 15.8992 8C18.0516 8 19.7984 9.792 19.7984 12Z" fill="#1ABCFE"/>
</svg>
