<svg width="1487" height="148" viewBox="0 0 1487 148" fill="none" xmlns="http://www.w3.org/2000/svg">
<path d="M188.896 57.5374C188.896 47.0432 178.692 35.8976 161.032 35.8976C141.202 35.8976 119.417 50.4448 116.088 79.4668C112.686 108.778 130.925 121.806 149.308 121.806C167.691 121.806 177.317 114.641 187.159 105.087C178.692 94.4482 167.763 99.3697 165.664 100.455C163.348 101.613 160.381 103.205 154.302 103.205C147.209 103.205 139.972 100.021 139.972 86.7766C185.422 82.2894 188.896 68.0317 188.896 57.5374ZM166.388 59.2744C166.099 62.5312 164.796 68.104 141.781 71.2161C146.63 53.9911 155.894 52.6884 160.164 52.6884C164.145 52.6884 166.678 55.8004 166.388 59.2744ZM89.382 62.097C89.382 62.097 79.6115 92.7836 78.8154 95.3167C78.5259 92.7112 71.3609 37.6345 71.3609 37.6345C54.7148 37.6345 45.8128 49.5039 41.1085 62.0246C41.1085 62.0246 29.2391 92.7836 28.2259 95.3891C28.1535 93.0007 26.4166 62.3865 26.4166 62.3865C25.4033 47.0432 11.3627 37.7069 0 37.7069L13.7511 121.154C31.1932 121.082 40.6019 109.285 45.5233 96.7642C45.5233 96.7642 56.0176 69.6239 56.4518 68.3935C56.5242 69.5515 63.9787 121.154 63.9787 121.154C81.4933 121.154 90.9019 110.081 95.9681 97.9946L120.503 37.7069C103.205 37.7069 94.0864 49.5039 89.382 62.097ZM253.165 35.7528C242.381 35.7528 234.13 41.6151 227.182 50.2276V50.1553L233.407 0C219.076 0 207.424 12.4483 205.181 30.9761L194.325 120.503C202.575 120.503 211.332 118.115 216.037 112.035C220.234 117.463 226.531 121.806 235.867 121.806C260.04 121.806 276.614 93.7245 276.614 67.3803C276.469 43.3521 264.817 35.7528 253.165 35.7528ZM250.921 78.8154C248.388 93.5074 240.21 103.495 232.321 103.495C224.36 103.495 220.958 99.9487 220.958 99.9487C222.478 87.0661 223.419 79.1773 226.314 72.3741C229.209 65.5709 236.084 54.7148 243.249 54.7148C250.27 54.7148 253.454 64.0511 250.921 78.8154ZM336.974 37.7069H320.111L320.183 36.8384C321.341 25.8376 323.947 20.0476 332.559 19.1068C338.421 18.5278 341.027 15.4881 341.678 12.1589C342.185 9.55338 343.777 0.506619 343.777 0.506619C309.906 0.289496 299.267 14.9091 296.517 37.2003L296.444 37.7069H296.083C290.582 37.7069 284.503 43.9311 283.489 51.8199L283.128 54.7148H294.418L284.937 133.024L282.042 147.064C282.404 147.064 282.838 147.137 283.2 147.137C299.05 146.558 309.182 134.037 311.426 115.871L318.808 54.7148H324.091C329.302 54.7148 335.382 49.5039 336.467 40.819L336.974 37.7069ZM424.691 36.2594C405.223 36.2594 386.84 50.5895 381.194 73.0979C375.549 95.6062 384.089 122.24 412.75 122.24C441.337 122.24 457.839 94.5206 457.839 71.4333C457.839 48.4907 442.278 36.2594 424.691 36.2594ZM432.58 78.0917C431.567 88.2964 427.08 103.784 414.776 103.784C402.4 103.784 404.137 85.691 405.367 77.0784C406.67 67.8869 411.809 54.7872 422.882 54.7872C432.797 54.7872 433.738 66.5842 432.58 78.0917ZM554.024 62.097C554.024 62.097 544.253 92.7836 543.457 95.3167C543.168 92.7112 536.003 37.6345 536.003 37.6345C519.357 37.6345 510.455 49.5039 505.75 62.0246C505.75 62.0246 493.881 92.7836 492.868 95.3891C492.795 93.0007 491.058 62.3865 491.058 62.3865C490.045 47.0432 476.005 37.7069 464.642 37.7069L478.321 121.154C495.763 121.082 505.171 109.285 510.093 96.7642C510.093 96.7642 520.587 69.6239 520.949 68.3935C521.021 69.5515 528.476 121.154 528.476 121.154C545.99 121.154 555.399 110.081 560.465 97.9946L585 37.7069C567.775 37.7069 558.656 49.5039 554.024 62.097ZM352.896 0.506619L338.711 114.93L335.816 129.043C336.178 129.043 336.612 129.115 336.974 129.115C352.245 128.898 363.101 115.509 365.127 98.6459L373.306 33.0026C375.766 12.955 363.825 0.506619 352.896 0.506619Z" fill="#B6B9CE"/>
<g clip-path="url(#clip0_745_5215)">
<path d="M864.756 35.8894C864.756 31.1687 866.392 26.5938 869.385 22.9426C872.378 19.2915 876.544 16.7896 881.174 15.8624L924.057 7.29578C927.019 6.70472 930.076 6.77794 933.006 7.51016C935.937 8.24239 938.668 9.61539 941.004 11.5302C943.34 13.4451 945.222 15.8541 946.514 18.5836C947.806 21.3132 948.477 24.2953 948.477 27.3152V27.5602C948.47 32.2738 946.83 36.8394 943.837 40.4817C940.844 44.1239 936.683 46.6183 932.059 47.5413L906.613 52.6322V69.3674C906.613 74.0881 904.977 78.6631 901.984 82.3142C898.991 85.9654 894.825 88.4673 890.195 89.3944L839.31 99.5687C834.68 100.493 830.513 102.993 827.52 106.643C824.526 110.293 822.891 114.868 822.892 119.588V119.795C822.892 122.815 823.563 125.798 824.855 128.529C826.148 131.259 828.031 133.668 830.367 135.583C832.704 137.498 835.437 138.871 838.368 139.603C841.3 140.334 844.357 140.407 847.32 139.814L848.331 139.615C852.962 138.69 857.13 136.188 860.124 132.537C863.119 128.886 864.756 124.31 864.756 119.588V35.8894Z" stroke="#B6B9CE" stroke-width="13.4082" stroke-miterlimit="10"/>
<path d="M1006.36 82.8414V114.998H990.714V32.1127H1042.81V46.8244H1006.62H1006.25V47.1969V67.867V68.2395H1006.62H1038.81V82.4689H1006.74H1006.36V82.8414Z" fill="#B6B9CE" stroke="#B6B9CE" stroke-width="0.744901"/>
<path d="M1050.4 114.998V32.1127H1065.34V114.998H1050.4Z" fill="#B6B9CE" stroke="#B6B9CE" stroke-width="0.744901"/>
<path d="M1132.95 86.3473C1132.95 103.958 1120.02 116.766 1102.88 116.766C1085.74 116.766 1072.81 103.958 1072.81 86.3473C1072.81 68.7368 1085.74 55.9442 1102.88 55.9442C1120.02 55.9442 1132.95 68.6305 1132.95 86.3473ZM1118 86.3473C1118 80.7826 1116.2 76.5571 1113.39 73.7214C1110.59 70.8882 1106.8 69.4694 1102.88 69.4694C1098.96 69.4694 1095.17 70.8882 1092.37 73.7214C1089.56 76.5571 1087.76 80.7826 1087.76 86.3473C1087.76 91.9119 1089.56 96.1393 1092.37 98.9769C1095.17 101.812 1098.96 103.233 1102.88 103.233C1106.8 103.233 1110.59 101.814 1113.39 98.9798C1116.2 96.1431 1118 91.9157 1118 86.3473Z" fill="#B6B9CE" stroke="#B6B9CE" stroke-width="0.744901"/>
<path d="M1200.77 94.8253L1211.42 57.7128H1226.2L1208.27 114.997H1193.16L1179.68 75.6161L1179.32 74.5778L1178.97 75.618L1165.73 114.997H1150.34L1132.05 57.7128H1147.78L1158.42 94.7108L1158.75 95.8533L1159.13 94.7274L1171.69 57.7128H1187.67L1200.06 94.8405L1200.44 95.9799L1200.77 94.8253Z" fill="#B6B9CE" stroke="#B6B9CE" stroke-width="0.744901"/>
<path d="M1245.81 108.289V114.998H1231.24V32.1127H1245.99V63.7024V64.9938L1246.68 63.9007C1249.19 59.9063 1255.42 56.1742 1263.97 56.1742C1272.36 56.1742 1278.95 59.4047 1283.46 64.7435C1287.97 70.0892 1290.4 77.5771 1290.4 86.118C1290.4 94.8467 1287.71 102.42 1283 107.806C1278.3 113.188 1271.56 116.406 1263.41 116.406C1255.49 116.406 1249.49 112.921 1246.5 108.093L1245.81 106.978V108.289ZM1260.6 69.4697C1256.55 69.4697 1252.82 70.9501 1250.11 73.8017C1247.4 76.6536 1245.72 80.8488 1245.72 86.2328C1245.72 91.5601 1247.4 95.7843 1250.11 98.6799C1252.82 101.576 1256.55 103.118 1260.6 103.118C1264.7 103.118 1268.4 101.608 1271.08 98.7244C1273.75 95.8418 1275.36 91.6168 1275.36 86.2328C1275.36 80.8486 1273.75 76.6534 1271.07 73.8009C1268.4 70.9477 1264.7 69.4697 1260.6 69.4697Z" fill="#B6B9CE" stroke="#B6B9CE" stroke-width="0.744901"/>
<path d="M1338.12 107.461L1337.41 107.31C1335 112.703 1329.12 116.643 1321.47 116.643C1313.02 116.643 1306.01 113.354 1301.12 107.906C1296.22 102.455 1293.41 94.8231 1293.41 86.1175C1293.41 69.2934 1304.37 56.059 1321 56.059C1331.23 56.059 1335.93 61.5087 1337.29 64.6757L1338 64.5287V57.7126H1352.47V104.881C1352.47 109.635 1352.78 113.391 1352.92 115.012H1338.66C1338.31 112.754 1338.13 110.473 1338.12 108.188V107.461ZM1323.36 103.83C1327.54 103.83 1331.21 102.099 1333.83 99.0074C1336.45 95.919 1338 91.4933 1338 86.1175C1338 80.7431 1336.48 76.4382 1333.87 73.4714C1331.26 70.5009 1327.58 68.9028 1323.36 68.9028C1319.07 68.9028 1315.34 70.5034 1312.68 73.4749C1310.03 76.4432 1308.47 80.7488 1308.47 86.1175C1308.47 91.4349 1310 95.8611 1312.63 98.9645C1315.27 102.072 1319 103.83 1323.36 103.83Z" fill="#B6B9CE" stroke="#B6B9CE" stroke-width="0.744901"/>
<path d="M1376.88 91.5347L1376.88 91.534C1371.34 90.3063 1367.34 88.0411 1364.74 85.1076C1362.13 82.1772 1360.89 78.5532 1360.89 74.5577C1360.89 64.4209 1369.87 55.9442 1382.23 55.9442C1390.4 55.9442 1395.82 58.5384 1399.28 61.869C1402.63 65.0876 1404.17 69.0168 1404.58 72.0254L1392.21 74.8113C1391.91 73.143 1391.15 71.299 1389.69 69.8303C1388.11 68.2352 1385.74 67.1114 1382.34 67.1114C1378.11 67.1114 1374.54 69.666 1374.54 73.2639C1374.54 74.7797 1375.12 76.0264 1376.12 76.9655C1377.11 77.896 1378.51 78.5083 1380.15 78.812L1388.41 80.5794L1388.41 80.5799C1394.07 81.7508 1398.3 84.0515 1401.11 87.0792C1403.92 90.1037 1405.34 93.8741 1405.34 98.0297C1405.34 102.65 1403.54 107.336 1399.89 110.868C1396.24 114.398 1390.7 116.796 1383.17 116.796C1374.53 116.796 1368.75 113.997 1365.06 110.414C1361.47 106.944 1359.82 102.72 1359.4 99.53L1372.1 96.7159C1372.36 98.9422 1373.33 101.072 1375.05 102.677C1376.88 104.387 1379.55 105.476 1383.05 105.476C1385.71 105.476 1387.71 104.782 1389.06 103.65C1390.42 102.515 1391.08 100.964 1391.08 99.3235C1391.08 97.9324 1390.6 96.6546 1389.52 95.6074C1388.45 94.5697 1386.82 93.7817 1384.54 93.3023L1376.88 91.5347Z" fill="#B6B9CE" stroke="#B6B9CE" stroke-width="0.744901"/>
<path d="M1464.69 90.1015H1423.51H1423.12L1423.14 90.4911C1423.5 98.3698 1430.18 104.052 1438.14 104.052C1441.86 104.052 1444.77 103.122 1447 101.507C1449.13 99.9594 1450.61 97.8025 1451.57 95.2943L1463.98 99.007C1460.96 108.72 1451.96 116.758 1438.02 116.758C1422.29 116.758 1408.42 105.467 1408.42 86.1103C1408.42 67.7943 1421.94 55.9369 1436.61 55.9369C1445.49 55.9369 1452.55 58.7682 1457.39 63.8688C1462.23 68.9719 1464.9 76.3891 1464.9 85.6356C1464.9 86.7458 1464.84 87.8852 1464.78 88.7803C1464.75 89.2275 1464.73 89.6127 1464.7 89.9025L1464.7 89.947C1464.7 90.0014 1464.69 90.0531 1464.69 90.1015ZM1449.82 80.1439H1450.2L1450.19 79.7562C1450.07 76.7931 1449.04 73.8285 1446.86 71.602C1444.68 69.3703 1441.38 67.9156 1436.8 67.9156C1428.44 67.9156 1423.82 74.2181 1423.45 79.747L1423.43 80.1439H1423.83H1449.82Z" fill="#B6B9CE" stroke="#B6B9CE" stroke-width="0.744901"/>
<path d="M1470.57 23.8575H1470.2V24.2299V31.3676H1468.42V24.2299V23.8575H1468.05H1465.64V22.3593H1472.94V23.8575H1470.57ZM1480.86 27.8444L1483.06 22.3593H1485.81V31.3676H1484.12V25.807L1483.4 25.6682L1481.11 31.3676H1479.8L1477.49 25.7496L1476.77 25.8912V31.3676H1475.08V22.3593H1477.89L1480.17 27.8487L1480.52 28.6893L1480.86 27.8444Z" fill="#B6B9CE" stroke="#B6B9CE" stroke-width="0.744901"/>
</g>
<path d="M686.678 113L699.715 92.5669L712.878 113H730.428L709.995 82.413L731.055 51.0737H713.881L700.718 72.1337L687.054 51.0737H669.254L690.564 82.6637L669.254 113H686.678Z" fill="#B6B9CE"/>
<defs>
<clipPath id="clip0_745_5215">
<rect width="670.205" height="147.11" fill="white" transform="translate(816)"/>
</clipPath>
</defs>
</svg>
