<svg width="24" height="24" viewBox="0 0 24 24" fill="none" xmlns="http://www.w3.org/2000/svg">
<path d="M7.5 9V8.25C7.5 7.05653 7.97411 5.91193 8.81802 5.06802C9.66193 4.22411 10.8065 3.75 12 3.75C13.1935 3.75 14.3381 4.22411 15.182 5.06802C16.0259 5.91193 16.5 7.05653 16.5 8.25V9H18C18.1989 9 18.3897 9.07902 18.5303 9.21967C18.671 9.36032 18.75 9.55109 18.75 9.75V18.75C18.75 18.9489 18.671 19.1397 18.5303 19.2803C18.3897 19.421 18.1989 19.5 18 19.5H6C5.80109 19.5 5.61032 19.421 5.46967 19.2803C5.32902 19.1397 5.25 18.9489 5.25 18.75V9.75C5.25 9.55109 5.32902 9.36032 5.46967 9.21967C5.61032 9.07902 5.80109 9 6 9H7.5ZM17.25 10.5H6.75V18H17.25V10.5ZM11.25 14.799C10.964 14.6339 10.7405 14.3791 10.6142 14.074C10.4878 13.7689 10.4656 13.4307 10.5511 13.1117C10.6366 12.7928 10.8249 12.5109 11.0869 12.3099C11.3488 12.1089 11.6698 12 12 12C12.3302 12 12.6512 12.1089 12.9131 12.3099C13.1751 12.5109 13.3634 12.7928 13.4489 13.1117C13.5344 13.4307 13.5122 13.7689 13.3858 14.074C13.2595 14.3791 13.036 14.6339 12.75 14.799V16.5H11.25V14.799ZM9 9H15V8.25C15 7.45435 14.6839 6.69129 14.1213 6.12868C13.5587 5.56607 12.7956 5.25 12 5.25C11.2044 5.25 10.4413 5.56607 9.87868 6.12868C9.31607 6.69129 9 7.45435 9 8.25V9Z" fill="#050505"/>
</svg>
