<svg width="141" height="32" viewBox="0 0 141 32" fill="none" xmlns="http://www.w3.org/2000/svg">
<path d="M25.9556 28.0002H9.1556C8.00044 28.0002 6.89259 27.5429 6.07576 26.729C5.25894 25.9151 4.80005 24.8112 4.80005 23.6602V6.9202C4.80005 5.93359 5.19338 4.98739 5.89352 4.28976C6.59365 3.59212 7.54324 3.2002 8.53338 3.2002H25.9556C26.2857 3.2002 26.6022 3.33084 26.8356 3.56338C27.0689 3.79593 27.2 4.11133 27.2 4.4402V26.7602C27.2 27.0891 27.0689 27.4045 26.8356 27.637C26.6022 27.8696 26.2857 28.0002 25.9556 28.0002ZM24.7112 25.5202V21.8002H9.1556C8.66053 21.8002 8.18574 21.9962 7.83567 22.345C7.4856 22.6938 7.28894 23.1669 7.28894 23.6602C7.28894 24.1535 7.4856 24.6266 7.83567 24.9754C8.18574 25.3242 8.66053 25.5202 9.1556 25.5202H24.7112ZM13.5112 5.6802V15.6002L17.8667 13.1202L22.2223 15.6002V5.6802H13.5112Z" fill="#050505"/>
<path d="M41.944 24V7.536H46.144L49.336 17.52C49.432 17.808 49.528 18.136 49.624 18.504C49.72 18.872 49.808 19.224 49.888 19.56C49.984 19.896 50.056 20.192 50.104 20.448H50.296C50.328 20.208 50.384 19.92 50.464 19.584C50.544 19.248 50.624 18.896 50.704 18.528C50.8 18.16 50.896 17.816 50.992 17.496L54.208 7.536H58.336V24H55.672V14.976C55.672 14.368 55.68 13.736 55.696 13.08C55.712 12.424 55.728 11.84 55.744 11.328C55.76 10.816 55.768 10.488 55.768 10.344H55.576C55.544 10.52 55.464 10.824 55.336 11.256C55.224 11.672 55.104 12.12 54.976 12.6C54.848 13.08 54.728 13.496 54.616 13.848L51.28 24H48.904L45.568 13.872C45.472 13.568 45.368 13.208 45.256 12.792C45.144 12.376 45.032 11.952 44.92 11.52C44.808 11.088 44.712 10.696 44.632 10.344H44.44C44.456 10.728 44.464 11.2 44.464 11.76C44.48 12.32 44.496 12.888 44.512 13.464C44.528 14.024 44.536 14.528 44.536 14.976V24H41.944ZM66.7769 24.288C65.4809 24.288 64.3929 24.056 63.5129 23.592C62.6489 23.112 61.9929 22.384 61.5449 21.408C61.0969 20.432 60.8729 19.192 60.8729 17.688C60.8729 16.168 61.0969 14.928 61.5449 13.968C61.9929 12.992 62.6569 12.272 63.5369 11.808C64.4169 11.328 65.5129 11.088 66.8249 11.088C68.0249 11.088 69.0249 11.32 69.8249 11.784C70.6409 12.232 71.2569 12.92 71.6729 13.848C72.0889 14.776 72.2969 15.944 72.2969 17.352V18.312H63.4409C63.4729 19.208 63.6089 19.96 63.8489 20.568C64.0889 21.16 64.4489 21.6 64.9289 21.888C65.4249 22.16 66.0489 22.296 66.8009 22.296C67.2649 22.296 67.6809 22.24 68.0489 22.128C68.4169 22 68.7289 21.824 68.9849 21.6C69.2409 21.36 69.4409 21.08 69.5849 20.76C69.7289 20.424 69.8009 20.048 69.8009 19.632H72.2489C72.2489 20.384 72.1209 21.048 71.8649 21.624C71.6089 22.2 71.2329 22.688 70.7369 23.088C70.2569 23.472 69.6809 23.768 69.0089 23.976C68.3369 24.184 67.5929 24.288 66.7769 24.288ZM63.4889 16.488H69.6809C69.6809 15.864 69.6089 15.344 69.4649 14.928C69.3369 14.496 69.1449 14.144 68.8889 13.872C68.6329 13.6 68.3289 13.408 67.9769 13.296C67.6249 13.168 67.2249 13.104 66.7769 13.104C66.1049 13.104 65.5289 13.224 65.0489 13.464C64.5849 13.704 64.2249 14.08 63.9689 14.592C63.7129 15.088 63.5529 15.72 63.4889 16.488ZM74.4739 24V11.376H76.5379L76.7539 13.176H76.9219C77.2099 12.712 77.5379 12.328 77.9059 12.024C78.2899 11.72 78.7139 11.488 79.1779 11.328C79.6579 11.168 80.1699 11.088 80.7139 11.088C81.4979 11.088 82.1779 11.248 82.7539 11.568C83.3459 11.888 83.7939 12.424 84.0979 13.176H84.2659C84.5539 12.728 84.8899 12.352 85.2739 12.048C85.6579 11.728 86.0899 11.488 86.5699 11.328C87.0659 11.168 87.5939 11.088 88.1539 11.088C88.9059 11.088 89.5699 11.224 90.1459 11.496C90.7219 11.752 91.1779 12.192 91.5139 12.816C91.8499 13.424 92.0179 14.24 92.0179 15.264V24H89.5219V15.72C89.5219 15.24 89.4659 14.848 89.3539 14.544C89.2419 14.224 89.0899 13.976 88.8979 13.8C88.7059 13.608 88.4739 13.472 88.2019 13.392C87.9299 13.312 87.6339 13.272 87.3139 13.272C86.7859 13.272 86.3139 13.416 85.8979 13.704C85.4819 13.976 85.1459 14.36 84.8899 14.856C84.6339 15.352 84.5059 15.936 84.5059 16.608V24H82.0099V15.72C82.0099 15.24 81.9539 14.848 81.8419 14.544C81.7299 14.224 81.5779 13.976 81.3859 13.8C81.1939 13.608 80.9619 13.472 80.6899 13.392C80.4179 13.312 80.1299 13.272 79.8259 13.272C79.2979 13.272 78.8179 13.416 78.3859 13.704C77.9539 13.976 77.6099 14.36 77.3539 14.856C77.0979 15.352 76.9699 15.936 76.9699 16.608V24H74.4739ZM101.098 24.288C100.266 24.288 99.5144 24.12 98.8424 23.784C98.1704 23.448 97.6184 22.944 97.1864 22.272H97.0184L96.8024 24H94.7624V6.648H97.2584V12.912H97.4024C97.6744 12.496 97.9944 12.152 98.3624 11.88C98.7464 11.608 99.1784 11.408 99.6584 11.28C100.138 11.152 100.658 11.088 101.218 11.088C102.178 11.088 103.026 11.32 103.762 11.784C104.498 12.248 105.066 12.96 105.466 13.92C105.882 14.88 106.09 16.12 106.09 17.64C106.09 19.192 105.89 20.456 105.49 21.432C105.09 22.408 104.514 23.128 103.762 23.592C103.026 24.056 102.138 24.288 101.098 24.288ZM100.402 22.128C101.122 22.128 101.706 21.984 102.154 21.696C102.618 21.408 102.962 20.96 103.186 20.352C103.41 19.728 103.522 18.92 103.522 17.928V17.496C103.522 16.504 103.41 15.696 103.186 15.072C102.978 14.448 102.642 13.992 102.178 13.704C101.714 13.4 101.106 13.248 100.354 13.248C99.8904 13.248 99.4664 13.328 99.0824 13.488C98.6984 13.648 98.3704 13.904 98.0984 14.256C97.8264 14.592 97.6184 15.032 97.4744 15.576C97.3304 16.12 97.2584 16.776 97.2584 17.544V17.88C97.2584 18.792 97.3624 19.568 97.5704 20.208C97.7944 20.832 98.1384 21.312 98.6024 21.648C99.0664 21.968 99.6664 22.128 100.402 22.128ZM113.533 24.288C112.237 24.288 111.149 24.056 110.269 23.592C109.405 23.112 108.749 22.384 108.301 21.408C107.853 20.432 107.629 19.192 107.629 17.688C107.629 16.168 107.853 14.928 108.301 13.968C108.749 12.992 109.413 12.272 110.293 11.808C111.173 11.328 112.269 11.088 113.581 11.088C114.781 11.088 115.781 11.32 116.581 11.784C117.397 12.232 118.013 12.92 118.429 13.848C118.845 14.776 119.053 15.944 119.053 17.352V18.312H110.197C110.229 19.208 110.365 19.96 110.605 20.568C110.845 21.16 111.205 21.6 111.685 21.888C112.181 22.16 112.805 22.296 113.557 22.296C114.021 22.296 114.437 22.24 114.805 22.128C115.173 22 115.485 21.824 115.741 21.6C115.997 21.36 116.197 21.08 116.341 20.76C116.485 20.424 116.557 20.048 116.557 19.632H119.005C119.005 20.384 118.877 21.048 118.621 21.624C118.365 22.2 117.989 22.688 117.493 23.088C117.013 23.472 116.437 23.768 115.765 23.976C115.093 24.184 114.349 24.288 113.533 24.288ZM110.245 16.488H116.437C116.437 15.864 116.365 15.344 116.221 14.928C116.093 14.496 115.901 14.144 115.645 13.872C115.389 13.6 115.085 13.408 114.733 13.296C114.381 13.168 113.981 13.104 113.533 13.104C112.861 13.104 112.285 13.224 111.805 13.464C111.341 13.704 110.981 14.08 110.725 14.592C110.469 15.088 110.309 15.72 110.245 16.488ZM121.23 24V11.376H123.294L123.51 13.416H123.654C123.798 13.016 123.982 12.64 124.206 12.288C124.446 11.936 124.75 11.648 125.118 11.424C125.502 11.2 125.966 11.088 126.51 11.088C126.766 11.088 126.99 11.112 127.182 11.16C127.39 11.208 127.55 11.248 127.662 11.28V13.632H126.822C126.31 13.632 125.854 13.712 125.454 13.872C125.07 14.032 124.742 14.272 124.47 14.592C124.214 14.896 124.022 15.272 123.894 15.72C123.782 16.168 123.726 16.672 123.726 17.232V24H121.23ZM133.823 24.288C132.943 24.288 132.167 24.192 131.495 24C130.823 23.808 130.263 23.544 129.815 23.208C129.367 22.872 129.023 22.472 128.783 22.008C128.559 21.528 128.447 21 128.447 20.424C128.447 20.344 128.447 20.272 128.447 20.208C128.463 20.144 128.471 20.088 128.471 20.04H130.943C130.943 20.088 130.943 20.136 130.943 20.184C130.943 20.216 130.943 20.256 130.943 20.304C130.943 20.8 131.079 21.2 131.351 21.504C131.623 21.792 131.983 22 132.431 22.128C132.895 22.24 133.399 22.296 133.943 22.296C134.423 22.296 134.863 22.24 135.263 22.128C135.679 22 136.015 21.816 136.271 21.576C136.543 21.336 136.679 21.032 136.679 20.664C136.679 20.184 136.511 19.816 136.175 19.56C135.839 19.304 135.399 19.104 134.855 18.96C134.311 18.8 133.743 18.632 133.151 18.456C132.623 18.312 132.095 18.16 131.567 18C131.055 17.824 130.591 17.6 130.175 17.328C129.759 17.056 129.423 16.712 129.167 16.296C128.911 15.88 128.783 15.36 128.783 14.736C128.783 14.144 128.911 13.624 129.167 13.176C129.423 12.728 129.775 12.352 130.223 12.048C130.687 11.744 131.231 11.512 131.855 11.352C132.495 11.192 133.191 11.112 133.943 11.112C134.727 11.112 135.423 11.2 136.031 11.376C136.639 11.536 137.151 11.768 137.567 12.072C137.999 12.376 138.327 12.744 138.551 13.176C138.775 13.592 138.887 14.04 138.887 14.52C138.887 14.616 138.879 14.72 138.863 14.832C138.863 14.928 138.863 14.992 138.863 15.024H136.415V14.808C136.415 14.488 136.327 14.2 136.151 13.944C135.975 13.688 135.695 13.48 135.311 13.32C134.943 13.16 134.447 13.08 133.823 13.08C133.407 13.08 133.039 13.12 132.719 13.2C132.399 13.264 132.135 13.36 131.927 13.488C131.719 13.616 131.559 13.768 131.447 13.944C131.351 14.12 131.303 14.32 131.303 14.544C131.303 14.912 131.431 15.2 131.687 15.408C131.959 15.6 132.311 15.768 132.743 15.912C133.175 16.04 133.639 16.184 134.135 16.344C134.711 16.504 135.295 16.672 135.887 16.848C136.479 17.008 137.023 17.216 137.519 17.472C138.031 17.728 138.439 18.08 138.743 18.528C139.063 18.976 139.223 19.576 139.223 20.328C139.223 21.016 139.087 21.616 138.815 22.128C138.543 22.64 138.159 23.056 137.663 23.376C137.183 23.68 136.615 23.904 135.959 24.048C135.303 24.208 134.591 24.288 133.823 24.288Z" fill="#050505"/>
</svg>
